<svg xmlns="http://www.w3.org/2000/svg" xmlns:xlink="http://www.w3.org/1999/xlink" xmlns:lucid="lucid" width="945.91" height="1008"><g transform="translate(-404.587109823449 -180)" lucid:page-tab-id="0_0"><path d="M0 0h1760v1360H0z" fill="#fff"/><path d="M1230.6 724.4h99.9v104h-99.9z" fill="#fff"/><path d="M1230.6 796.4h99.9v32h-99.9z" fill="#e6e6e6"/><path d="M1230.6 724.4h99.9v40h-99.9z" fill="#ccc"/><path d="M1230.6 724.4h99.9v104h-99.9zM1230.6 764.4h99.9" stroke="#666" fill="none"/><use xlink:href="#a" transform="matrix(1,0,0,1,1235.587109823449,766.8943148223536) translate(0 17.1)"/><use xlink:href="#b" transform="matrix(1,0,0,1,1235.587109823449,798.8943148223536) translate(0 17.1)"/><path d="M1230.6 724.5h99.9v40h-99.9z" stroke="#666" fill="#ffb781"/><use xlink:href="#c" transform="matrix(1,0,0,1,1235.3871098234497,729.2921880077067) translate(0 19.359722222222224)"/><path d="M451.1 200h159.5v200H451.1z" fill="#fff"/><path d="M451.1 272h159.5v32H451.1zM451.1 336h159.5v32H451.1z" fill="#e6e6e6"/><path d="M451.1 200h159.5v40H451.1z" fill="#ccc"/><path d="M451.1 200h159.5v200H451.1zM451.1 240h159.5" stroke="#666" fill="none"/><use xlink:href="#d" transform="matrix(1,0,0,1,456.087109823449,242.5) translate(0 17.1)"/><use xlink:href="#b" transform="matrix(1,0,0,1,456.087109823449,274.5) translate(0 17.1)"/><use xlink:href="#e" transform="matrix(1,0,0,1,456.087109823449,306.5) translate(0 17.1)"/><use xlink:href="#f" transform="matrix(1,0,0,1,456.087109823449,338.5) translate(0 17.1)"/><use xlink:href="#g" transform="matrix(1,0,0,1,456.087109823449,370.5) translate(0 17.1)"/><path d="M451.1 200h159.5v40H451.1z" stroke="#666" fill="#ffb781"/><use xlink:href="#h" transform="matrix(1,0,0,1,455.88710982344907,204.8) translate(0 19.359722222222224)"/><path d="M810.6 200h200v456h-200z" fill="#fff"/><path d="M810.6 272h200v32h-200zM810.6 336h200v32h-200zM810.6 400h200v32h-200zM810.6 464h200v32h-200zM810.6 528h200v32h-200zM810.6 592h200v32h-200z" fill="#e6e6e6"/><path d="M810.6 200h200v40h-200z" fill="#ccc"/><path d="M810.6 200h200v456h-200zM810.6 240h200" stroke="#666" fill="none"/><use xlink:href="#i" transform="matrix(1,0,0,1,815.587109823449,242.5) translate(0 17.1)"/><use xlink:href="#j" transform="matrix(1,0,0,1,815.587109823449,274.5) translate(0 17.1)"/><use xlink:href="#k" transform="matrix(1,0,0,1,815.587109823449,306.5) translate(0 17.1)"/><use xlink:href="#l" transform="matrix(1,0,0,1,815.587109823449,338.5) translate(0 17.1)"/><use xlink:href="#m" transform="matrix(1,0,0,1,815.587109823449,370.5) translate(0 17.1)"/><use xlink:href="#n" transform="matrix(1,0,0,1,815.587109823449,402.5) translate(0 17.1)"/><use xlink:href="#o" transform="matrix(1,0,0,1,815.587109823449,434.5) translate(0 17.1)"/><use xlink:href="#p" transform="matrix(1,0,0,1,815.587109823449,466.5) translate(0 17.1)"/><use xlink:href="#q" transform="matrix(1,0,0,1,815.587109823449,498.5) translate(0 17.1)"/><use xlink:href="#r" transform="matrix(1,0,0,1,815.587109823449,530.5) translate(0 17.1)"/><use xlink:href="#s" transform="matrix(1,0,0,1,815.587109823449,562.5) translate(0 17.1)"/><use xlink:href="#t" transform="matrix(1,0,0,1,815.587109823449,594.5) translate(0 17.1)"/><use xlink:href="#u" transform="matrix(1,0,0,1,815.587109823449,626.5) translate(0 17.1)"/><path d="M810.6 200.1h200v40h-200z" stroke="#666" fill="#ffb781"/><use xlink:href="#v" transform="matrix(1,0,0,1,815.387109823449,204.8978731853532) translate(0 20.655555555555555)"/><path d="M631.1 256h159" stroke="#000" fill="none"/><path d="M631.1 266v-20M611.1 256h20M790.1 246v20M810.1 256h-20" stroke="#000" fill="#fff"/><path d="M451.1 1000h260v168h-260z" fill="#fff"/><path d="M451.1 1072h260v32h-260zM451.1 1136h260v32h-260z" fill="#e6e6e6"/><path d="M451.1 1000h260v40h-260z" fill="#ccc"/><path d="M451.1 1000h260v168h-260zM451.1 1040h260" stroke="#666" fill="none"/><use xlink:href="#i" transform="matrix(1,0,0,1,456.087109823449,1042.5) translate(0 17.1)"/><use xlink:href="#a" transform="matrix(1,0,0,1,456.087109823449,1074.5) translate(0 17.1)"/><use xlink:href="#u" transform="matrix(1,0,0,1,456.087109823449,1106.5) translate(0 17.1)"/><use xlink:href="#w" transform="matrix(1,0,0,1,456.087109823449,1138.5) translate(0 17.1)"/><path d="M451.1 1000.1h260v40h-260z" stroke="#666" fill="#ffb781"/><use xlink:href="#x" transform="matrix(1,0,0,1,455.88710982344907,1004.8978731853531) translate(0 19.359722222222224)"/><path d="M731 1088h227.84c6.62 0 12-5.37 12-12V792.43c0-6.62 5.37-12 12-12h227.25" stroke="#000" fill="none"/><path d="M711.8 1078l20 10-20 10M711.8 1088h20M1210.1 770.43v20M1230.1 780.43h-20" stroke="#000" fill="#fff"/><path d="M451.17 620h260v168h-260z" fill="#fff"/><path d="M451.17 692h260v32h-260zM451.17 756h260v32h-260z" fill="#e6e6e6"/><path d="M451.17 620h260v40h-260z" fill="#ccc"/><path d="M451.17 620h260v168h-260zM451.17 660h260" stroke="#666" fill="none"/><use xlink:href="#i" transform="matrix(1,0,0,1,456.17421964689896,662.5) translate(0 17.1)"/><use xlink:href="#a" transform="matrix(1,0,0,1,456.17421964689896,694.5) translate(0 17.1)"/><use xlink:href="#y" transform="matrix(1,0,0,1,456.17421964689896,726.5) translate(0 17.1)"/><use xlink:href="#w" transform="matrix(1,0,0,1,456.17421964689896,758.5) translate(0 17.1)"/><path d="M451.17 620.1h260v40h-260z" stroke="#666" fill="#ffb781"/><use xlink:href="#z" transform="matrix(1,0,0,1,455.97421964689903,624.8978731853531) translate(0 19.359722222222224)"/><path d="M451.1 810.05h260v168h-260z" fill="#fff"/><path d="M451.1 882.05h260v32h-260zM451.1 946.05h260v32h-260z" fill="#e6e6e6"/><path d="M451.1 810.05h260v40h-260z" fill="#ccc"/><path d="M451.1 810.05h260v168h-260zM451.1 850.05h260" stroke="#666" fill="none"/><use xlink:href="#i" transform="matrix(1,0,0,1,456.087109823449,852.5489365926766) translate(0 17.1)"/><use xlink:href="#a" transform="matrix(1,0,0,1,456.087109823449,884.5489365926766) translate(0 17.1)"/><use xlink:href="#y" transform="matrix(1,0,0,1,456.087109823449,916.5489365926766) translate(0 17.1)"/><use xlink:href="#w" transform="matrix(1,0,0,1,456.087109823449,948.5489365926766) translate(0 17.1)"/><path d="M451.1 810.15h260v40h-260z" stroke="#666" fill="#ffb781"/><use xlink:href="#A" transform="matrix(1,0,0,1,455.88710982344907,814.9468097780297) translate(0 20.655555555555555)"/><path d="M1030.5 288h78.1c6.6 0 12 5.37 12 12v468.43c0 6.63 5.36 12 12 12h77.5" stroke="#000" fill="none"/><path d="M1011.3 278l20 10-20 10M1011.3 288h20M1210.1 770.43v20M1230.1 780.43h-20" stroke="#000" fill="#fff"/><path d="M731 898.05h227.84c6.62 0 12-5.37 12-12v-93.62c0-6.62 5.37-12 12-12h227.25" stroke="#000" fill="none"/><path d="M711.8 888.05l20 10-20 10M711.8 898.05h20M1210.1 770.43v20M1230.1 780.43h-20" stroke="#000" fill="#fff"/><path d="M731.1 708h227.78c6.63 0 12 5.37 12 12v48.43c0 6.63 5.37 12 12 12h227.2" stroke="#000" fill="none"/><path d="M711.9 698l20 10-20 10M711.9 708h20M1210.1 770.43v20M1230.1 780.43h-20" stroke="#000" fill="#fff"/><path d="M431.26 676h-8.67c-6.64 0-12-5.37-12-12V268c0-6.63 5.36-12 12-12h8" stroke="#000" fill="none"/><path d="M450.45 686l-20-10 20-10M450.45 676h-20M430.6 246v20M450.6 256h-20" stroke="#000" fill="#fff"/><path d="M430.6 256h-8c-6.64 0-12 5.37-12 12v586.05c0 6.63 5.36 12 12 12h8.58" stroke="#000" fill="none"/><path d="M430.6 246v20M450.6 256h-20M450.36 876.05l-20-10 20-10M450.36 866.05h-20" stroke="#000" fill="#fff"/><path d="M430.6 256h-8c-6.64 0-12 5.37-12 12v776c0 6.63 5.36 12 12 12h8.58" stroke="#000" fill="none"/><path d="M430.6 246v20M450.6 256h-20M450.36 1066l-20-10 20-10M450.36 1056h-20" stroke="#000" fill="#fff"/><path d="M1090.6 900h120v104h-120z" fill="#fff"/><path d="M1090.6 972h120v32h-120z" fill="#e6e6e6"/><path d="M1090.6 900h120v40h-120z" fill="#ccc"/><path d="M1090.6 900h120v104h-120zM1090.6 940h120" stroke="#666" fill="none"/><use xlink:href="#B" transform="matrix(1,0,0,1,1095.587109823449,942.5) translate(0 17.1)"/><use xlink:href="#C" transform="matrix(1,0,0,1,1095.587109823449,974.5) translate(0 17.1)"/><path d="M1090.6 900h120v40h-120z" stroke="#666" fill="#ffb781"/><use xlink:href="#D" transform="matrix(1,0,0,1,1095.387109823449,904.8) translate(0 17.422222222222224)"/><use xlink:href="#E" transform="matrix(1,0,0,1,1095.387109823449,904.8) translate(36.01 38.75555555555556)"/><defs><path d="M135-143c-3-34-86-38-87 0 15 53 115 12 119 90S17 21 10-45l28-5c4 36 97 45 98 0-10-56-113-15-118-90-4-57 82-63 122-42 12 7 21 19 24 35" id="F"/><path d="M59-47c-2 24 18 29 38 22v24C64 9 27 4 27-40v-127H5v-23h24l9-43h21v43h35v23H59v120" id="G"/><path d="M100-194c63 0 86 42 84 106H49c0 40 14 67 53 68 26 1 43-12 49-29l28 8c-11 28-37 45-77 45C44 4 14-33 15-96c1-61 26-98 85-98zm52 81c6-60-76-77-97-28-3 7-6 17-6 28h103" id="H"/><path d="M141-36C126-15 110 5 73 4 37 3 15-17 15-53c-1-64 63-63 125-63 3-35-9-54-41-54-24 1-41 7-42 31l-33-3c5-37 33-52 76-52 45 0 72 20 72 64v82c-1 20 7 32 28 27v20c-31 9-61-2-59-35zM48-53c0 20 12 33 32 33 41-3 63-29 60-74-43 2-92-5-92 41" id="I"/><path d="M210-169c-67 3-38 105-44 169h-31v-121c0-29-5-50-35-48C34-165 62-65 56 0H25l-1-190h30c1 10-1 24 2 32 10-44 99-50 107 0 11-21 27-35 58-36 85-2 47 119 55 194h-31v-121c0-29-5-49-35-48" id="J"/><path d="M-5 72V49h209v23H-5" id="K"/><path d="M24-231v-30h32v30H24zM24 0v-190h32V0H24" id="L"/><path d="M85-194c31 0 48 13 60 33l-1-100h32l1 261h-30c-2-10 0-23-3-31C134-8 116 4 85 4 32 4 16-35 15-94c0-66 23-100 70-100zm9 24c-40 0-46 34-46 75 0 40 6 74 45 74 42 0 51-32 51-76 0-42-9-74-50-73" id="M"/><g id="a"><use transform="matrix(0.05,0,0,0.05,0,0)" xlink:href="#F"/><use transform="matrix(0.05,0,0,0.05,9,0)" xlink:href="#G"/><use transform="matrix(0.05,0,0,0.05,14,0)" xlink:href="#H"/><use transform="matrix(0.05,0,0,0.05,24,0)" xlink:href="#I"/><use transform="matrix(0.05,0,0,0.05,34,0)" xlink:href="#J"/><use transform="matrix(0.05,0,0,0.05,48.95,0)" xlink:href="#K"/><use transform="matrix(0.05,0,0,0.05,58.95,0)" xlink:href="#L"/><use transform="matrix(0.05,0,0,0.05,62.900000000000006,0)" xlink:href="#M"/></g><path d="M117-194c89-4 53 116 60 194h-32v-121c0-31-8-49-39-48C34-167 62-67 57 0H25l-1-190h30c1 10-1 24 2 32 11-22 29-35 61-36" id="N"/><g id="b"><use transform="matrix(0.05,0,0,0.05,0,0)" xlink:href="#N"/><use transform="matrix(0.05,0,0,0.05,10,0)" xlink:href="#I"/><use transform="matrix(0.05,0,0,0.05,20,0)" xlink:href="#J"/><use transform="matrix(0.05,0,0,0.05,34.95,0)" xlink:href="#H"/></g><path d="M84 4C-5 8 30-112 23-190h32v120c0 31 7 50 39 49 72-2 45-101 50-169h31l1 190h-30c-1-10 1-25-2-33-11 22-28 36-60 37" id="O"/><path d="M114-163C36-179 61-72 57 0H25l-1-190h30c1 12-1 29 2 39 6-27 23-49 58-41v29" id="P"/><g id="c"><use transform="matrix(0.04938271604938272,0,0,0.04938271604938272,0,0)" xlink:href="#O"/><use transform="matrix(0.04938271604938272,0,0,0.04938271604938272,9.876543209876544,0)" xlink:href="#F"/><use transform="matrix(0.04938271604938272,0,0,0.04938271604938272,18.765432098765434,0)" xlink:href="#H"/><use transform="matrix(0.04938271604938272,0,0,0.04938271604938272,28.641975308641978,0)" xlink:href="#P"/><use transform="matrix(0.04938271604938272,0,0,0.04938271604938272,34.51851851851852,0)" xlink:href="#F"/></g><g id="d"><use transform="matrix(0.05,0,0,0.05,0,0)" xlink:href="#L"/><use transform="matrix(0.05,0,0,0.05,3.95,0)" xlink:href="#M"/></g><path d="M115-194c55 1 70 41 70 98S169 2 115 4C84 4 66-9 55-30l1 105H24l-1-265h31l2 30c10-21 28-34 59-34zm-8 174c40 0 45-34 45-75s-6-73-45-74c-42 0-51 32-51 76 0 43 10 73 51 73" id="Q"/><g id="e"><use transform="matrix(0.05,0,0,0.05,0,0)" xlink:href="#L"/><use transform="matrix(0.05,0,0,0.05,3.95,0)" xlink:href="#F"/><use transform="matrix(0.05,0,0,0.05,12.949999999999998,0)" xlink:href="#K"/><use transform="matrix(0.05,0,0,0.05,22.95,0)" xlink:href="#F"/><use transform="matrix(0.05,0,0,0.05,31.950000000000003,0)" xlink:href="#Q"/><use transform="matrix(0.05,0,0,0.05,41.95,0)" xlink:href="#P"/><use transform="matrix(0.05,0,0,0.05,47.900000000000006,0)" xlink:href="#L"/><use transform="matrix(0.05,0,0,0.05,51.85,0)" xlink:href="#N"/><use transform="matrix(0.05,0,0,0.05,61.85,0)" xlink:href="#G"/></g><path d="M96-169c-40 0-48 33-48 73s9 75 48 75c24 0 41-14 43-38l32 2c-6 37-31 61-74 61-59 0-76-41-82-99-10-93 101-131 147-64 4 7 5 14 7 22l-32 3c-4-21-16-35-41-35" id="R"/><path d="M106-169C34-169 62-67 57 0H25v-261h32l-1 103c12-21 28-36 61-36 89 0 53 116 60 194h-32v-121c2-32-8-49-39-48" id="S"/><path d="M24 0v-261h32V0H24" id="T"/><path d="M177-190C167-65 218 103 67 71c-23-6-38-20-44-43l32-5c15 47 100 32 89-28v-30C133-14 115 1 83 1 29 1 15-40 15-95c0-56 16-97 71-98 29-1 48 16 59 35 1-10 0-23 2-32h30zM94-22c36 0 50-32 50-73 0-42-14-75-50-75-39 0-46 34-46 75s6 73 46 73" id="U"/><g id="f"><use transform="matrix(0.05,0,0,0.05,0,0)" xlink:href="#L"/><use transform="matrix(0.05,0,0,0.05,3.95,0)" xlink:href="#F"/><use transform="matrix(0.05,0,0,0.05,12.949999999999998,0)" xlink:href="#K"/><use transform="matrix(0.05,0,0,0.05,22.95,0)" xlink:href="#R"/><use transform="matrix(0.05,0,0,0.05,31.950000000000003,0)" xlink:href="#S"/><use transform="matrix(0.05,0,0,0.05,41.95,0)" xlink:href="#I"/><use transform="matrix(0.05,0,0,0.05,51.95,0)" xlink:href="#T"/><use transform="matrix(0.05,0,0,0.05,55.900000000000006,0)" xlink:href="#T"/><use transform="matrix(0.05,0,0,0.05,59.85,0)" xlink:href="#H"/><use transform="matrix(0.05,0,0,0.05,69.85000000000001,0)" xlink:href="#N"/><use transform="matrix(0.05,0,0,0.05,79.85000000000001,0)" xlink:href="#U"/><use transform="matrix(0.05,0,0,0.05,89.85000000000001,0)" xlink:href="#H"/></g><g id="g"><use transform="matrix(0.05,0,0,0.05,0,0)" xlink:href="#L"/><use transform="matrix(0.05,0,0,0.05,3.95,0)" xlink:href="#F"/><use transform="matrix(0.05,0,0,0.05,12.949999999999998,0)" xlink:href="#K"/><use transform="matrix(0.05,0,0,0.05,22.95,0)" xlink:href="#F"/><use transform="matrix(0.05,0,0,0.05,31.950000000000003,0)" xlink:href="#G"/><use transform="matrix(0.05,0,0,0.05,36.95,0)" xlink:href="#O"/><use transform="matrix(0.05,0,0,0.05,46.95,0)" xlink:href="#N"/><use transform="matrix(0.05,0,0,0.05,56.95,0)" xlink:href="#G"/></g><path d="M108 0H70L1-190h34L89-25l56-165h34" id="V"/><g id="h"><use transform="matrix(0.04938271604938272,0,0,0.04938271604938272,0,0)" xlink:href="#T"/><use transform="matrix(0.04938271604938272,0,0,0.04938271604938272,3.901234567901235,0)" xlink:href="#H"/><use transform="matrix(0.04938271604938272,0,0,0.04938271604938272,13.777777777777779,0)" xlink:href="#V"/><use transform="matrix(0.04938271604938272,0,0,0.04938271604938272,22.666666666666668,0)" xlink:href="#H"/><use transform="matrix(0.04938271604938272,0,0,0.04938271604938272,32.543209876543216,0)" xlink:href="#T"/><use transform="matrix(0.04938271604938272,0,0,0.04938271604938272,36.44444444444445,0)" xlink:href="#F"/></g><g id="i"><use transform="matrix(0.05,0,0,0.05,0,0)" xlink:href="#T"/><use transform="matrix(0.05,0,0,0.05,3.95,0)" xlink:href="#H"/><use transform="matrix(0.05,0,0,0.05,13.949999999999998,0)" xlink:href="#V"/><use transform="matrix(0.05,0,0,0.05,22.95,0)" xlink:href="#H"/><use transform="matrix(0.05,0,0,0.05,32.95,0)" xlink:href="#T"/><use transform="matrix(0.05,0,0,0.05,36.900000000000006,0)" xlink:href="#K"/><use transform="matrix(0.05,0,0,0.05,46.900000000000006,0)" xlink:href="#L"/><use transform="matrix(0.05,0,0,0.05,50.85000000000001,0)" xlink:href="#M"/></g><path d="M100-194c62-1 85 37 85 99 1 63-27 99-86 99S16-35 15-95c0-66 28-99 85-99zM99-20c44 1 53-31 53-75 0-43-8-75-51-75s-53 32-53 75 10 74 51 75" id="W"/><g id="j"><use transform="matrix(0.05,0,0,0.05,0,0)" xlink:href="#I"/><use transform="matrix(0.05,0,0,0.05,10,0)" xlink:href="#O"/><use transform="matrix(0.05,0,0,0.05,20,0)" xlink:href="#G"/><use transform="matrix(0.05,0,0,0.05,25,0)" xlink:href="#S"/><use transform="matrix(0.05,0,0,0.05,35,0)" xlink:href="#W"/><use transform="matrix(0.05,0,0,0.05,45,0)" xlink:href="#P"/><use transform="matrix(0.05,0,0,0.05,50.95,0)" xlink:href="#K"/><use transform="matrix(0.05,0,0,0.05,60.95,0)" xlink:href="#F"/><use transform="matrix(0.05,0,0,0.05,69.95,0)" xlink:href="#G"/><use transform="matrix(0.05,0,0,0.05,74.95,0)" xlink:href="#H"/><use transform="matrix(0.05,0,0,0.05,84.95,0)" xlink:href="#I"/><use transform="matrix(0.05,0,0,0.05,94.95,0)" xlink:href="#J"/><use transform="matrix(0.05,0,0,0.05,109.9,0)" xlink:href="#K"/><use transform="matrix(0.05,0,0,0.05,119.9,0)" xlink:href="#L"/><use transform="matrix(0.05,0,0,0.05,123.85000000000001,0)" xlink:href="#M"/></g><g id="k"><use transform="matrix(0.05,0,0,0.05,0,0)" xlink:href="#M"/><use transform="matrix(0.05,0,0,0.05,10,0)" xlink:href="#H"/><use transform="matrix(0.05,0,0,0.05,20,0)" xlink:href="#F"/><use transform="matrix(0.05,0,0,0.05,29,0)" xlink:href="#R"/><use transform="matrix(0.05,0,0,0.05,38,0)" xlink:href="#P"/><use transform="matrix(0.05,0,0,0.05,43.95,0)" xlink:href="#L"/><use transform="matrix(0.05,0,0,0.05,47.900000000000006,0)" xlink:href="#Q"/><use transform="matrix(0.05,0,0,0.05,57.900000000000006,0)" xlink:href="#G"/><use transform="matrix(0.05,0,0,0.05,62.900000000000006,0)" xlink:href="#L"/><use transform="matrix(0.05,0,0,0.05,66.85000000000001,0)" xlink:href="#W"/><use transform="matrix(0.05,0,0,0.05,76.85000000000001,0)" xlink:href="#N"/></g><g id="l"><use transform="matrix(0.05,0,0,0.05,0,0)" xlink:href="#G"/><use transform="matrix(0.05,0,0,0.05,5,0)" xlink:href="#L"/><use transform="matrix(0.05,0,0,0.05,8.95,0)" xlink:href="#J"/><use transform="matrix(0.05,0,0,0.05,23.9,0)" xlink:href="#H"/><use transform="matrix(0.05,0,0,0.05,33.9,0)" xlink:href="#K"/><use transform="matrix(0.05,0,0,0.05,43.9,0)" xlink:href="#R"/><use transform="matrix(0.05,0,0,0.05,52.900000000000006,0)" xlink:href="#P"/><use transform="matrix(0.05,0,0,0.05,58.85,0)" xlink:href="#H"/><use transform="matrix(0.05,0,0,0.05,68.85,0)" xlink:href="#I"/><use transform="matrix(0.05,0,0,0.05,78.85,0)" xlink:href="#G"/><use transform="matrix(0.05,0,0,0.05,83.85,0)" xlink:href="#H"/><use transform="matrix(0.05,0,0,0.05,93.85,0)" xlink:href="#M"/></g><g id="m"><use transform="matrix(0.05,0,0,0.05,0,0)" xlink:href="#G"/><use transform="matrix(0.05,0,0,0.05,5,0)" xlink:href="#L"/><use transform="matrix(0.05,0,0,0.05,8.95,0)" xlink:href="#J"/><use transform="matrix(0.05,0,0,0.05,23.9,0)" xlink:href="#H"/><use transform="matrix(0.05,0,0,0.05,33.9,0)" xlink:href="#K"/><use transform="matrix(0.05,0,0,0.05,43.9,0)" xlink:href="#O"/><use transform="matrix(0.05,0,0,0.05,53.900000000000006,0)" xlink:href="#Q"/><use transform="matrix(0.05,0,0,0.05,63.900000000000006,0)" xlink:href="#M"/><use transform="matrix(0.05,0,0,0.05,73.9,0)" xlink:href="#I"/><use transform="matrix(0.05,0,0,0.05,83.9,0)" xlink:href="#G"/><use transform="matrix(0.05,0,0,0.05,88.9,0)" xlink:href="#H"/><use transform="matrix(0.05,0,0,0.05,98.9,0)" xlink:href="#M"/></g><path d="M115-194c53 0 69 39 70 98 0 66-23 100-70 100C84 3 66-7 56-30L54 0H23l1-261h32v101c10-23 28-34 59-34zm-8 174c40 0 45-34 45-75 0-40-5-75-45-74-42 0-51 32-51 76 0 43 10 73 51 73" id="X"/><path d="M179-190L93 31C79 59 56 82 12 73V49c39 6 53-20 64-50L1-190h34L92-34l54-156h33" id="Y"/><g id="n"><use transform="matrix(0.05,0,0,0.05,0,0)" xlink:href="#V"/><use transform="matrix(0.05,0,0,0.05,9,0)" xlink:href="#L"/><use transform="matrix(0.05,0,0,0.05,12.949999999999998,0)" xlink:href="#F"/><use transform="matrix(0.05,0,0,0.05,21.95,0)" xlink:href="#L"/><use transform="matrix(0.05,0,0,0.05,25.899999999999995,0)" xlink:href="#X"/><use transform="matrix(0.05,0,0,0.05,35.9,0)" xlink:href="#L"/><use transform="matrix(0.05,0,0,0.05,39.85,0)" xlink:href="#T"/><use transform="matrix(0.05,0,0,0.05,43.800000000000004,0)" xlink:href="#L"/><use transform="matrix(0.05,0,0,0.05,47.75000000000001,0)" xlink:href="#G"/><use transform="matrix(0.05,0,0,0.05,52.75,0)" xlink:href="#Y"/></g><g id="o"><use transform="matrix(0.05,0,0,0.05,0,0)" xlink:href="#G"/><use transform="matrix(0.05,0,0,0.05,5,0)" xlink:href="#I"/><use transform="matrix(0.05,0,0,0.05,15,0)" xlink:href="#U"/><use transform="matrix(0.05,0,0,0.05,25,0)" xlink:href="#F"/></g><path d="M206 0h-36l-40-164L89 0H53L-1-190h32L70-26l43-164h34l41 164 42-164h31" id="Z"/><g id="p"><use transform="matrix(0.05,0,0,0.05,0,0)" xlink:href="#Q"/><use transform="matrix(0.05,0,0,0.05,10,0)" xlink:href="#P"/><use transform="matrix(0.05,0,0,0.05,15.949999999999998,0)" xlink:href="#H"/><use transform="matrix(0.05,0,0,0.05,25.950000000000003,0)" xlink:href="#V"/><use transform="matrix(0.05,0,0,0.05,34.95,0)" xlink:href="#L"/><use transform="matrix(0.05,0,0,0.05,38.900000000000006,0)" xlink:href="#H"/><use transform="matrix(0.05,0,0,0.05,48.900000000000006,0)" xlink:href="#Z"/><use transform="matrix(0.05,0,0,0.05,61.85,0)" xlink:href="#K"/><use transform="matrix(0.05,0,0,0.05,71.85000000000001,0)" xlink:href="#O"/><use transform="matrix(0.05,0,0,0.05,81.85000000000001,0)" xlink:href="#P"/><use transform="matrix(0.05,0,0,0.05,87.80000000000001,0)" xlink:href="#T"/></g><path d="M101-234c-31-9-42 10-38 44h38v23H63V0H32v-167H5v-23h27c-7-52 17-82 69-68v24" id="aa"/><g id="q"><use transform="matrix(0.05,0,0,0.05,0,0)" xlink:href="#aa"/><use transform="matrix(0.05,0,0,0.05,5,0)" xlink:href="#L"/><use transform="matrix(0.05,0,0,0.05,8.95,0)" xlink:href="#T"/><use transform="matrix(0.05,0,0,0.05,12.899999999999999,0)" xlink:href="#H"/><use transform="matrix(0.05,0,0,0.05,22.9,0)" xlink:href="#K"/><use transform="matrix(0.05,0,0,0.05,32.9,0)" xlink:href="#N"/><use transform="matrix(0.05,0,0,0.05,42.9,0)" xlink:href="#I"/><use transform="matrix(0.05,0,0,0.05,52.900000000000006,0)" xlink:href="#J"/><use transform="matrix(0.05,0,0,0.05,67.85,0)" xlink:href="#H"/></g><path d="M9 0v-24l116-142H16v-24h144v24L44-24h123V0H9" id="ab"/><g id="r"><use transform="matrix(0.05,0,0,0.05,0,0)" xlink:href="#aa"/><use transform="matrix(0.05,0,0,0.05,5,0)" xlink:href="#L"/><use transform="matrix(0.05,0,0,0.05,8.95,0)" xlink:href="#T"/><use transform="matrix(0.05,0,0,0.05,12.899999999999999,0)" xlink:href="#H"/><use transform="matrix(0.05,0,0,0.05,22.9,0)" xlink:href="#K"/><use transform="matrix(0.05,0,0,0.05,32.9,0)" xlink:href="#F"/><use transform="matrix(0.05,0,0,0.05,41.9,0)" xlink:href="#L"/><use transform="matrix(0.05,0,0,0.05,45.85,0)" xlink:href="#ab"/><use transform="matrix(0.05,0,0,0.05,54.85,0)" xlink:href="#H"/></g><g id="s"><use transform="matrix(0.05,0,0,0.05,0,0)" xlink:href="#V"/><use transform="matrix(0.05,0,0,0.05,9,0)" xlink:href="#W"/><use transform="matrix(0.05,0,0,0.05,19,0)" xlink:href="#G"/><use transform="matrix(0.05,0,0,0.05,24,0)" xlink:href="#H"/><use transform="matrix(0.05,0,0,0.05,34,0)" xlink:href="#F"/><use transform="matrix(0.05,0,0,0.05,43,0)" xlink:href="#K"/><use transform="matrix(0.05,0,0,0.05,53,0)" xlink:href="#O"/><use transform="matrix(0.05,0,0,0.05,63,0)" xlink:href="#Q"/></g><g id="t"><use transform="matrix(0.05,0,0,0.05,0,0)" xlink:href="#V"/><use transform="matrix(0.05,0,0,0.05,9,0)" xlink:href="#W"/><use transform="matrix(0.05,0,0,0.05,19,0)" xlink:href="#G"/><use transform="matrix(0.05,0,0,0.05,24,0)" xlink:href="#H"/><use transform="matrix(0.05,0,0,0.05,34,0)" xlink:href="#F"/><use transform="matrix(0.05,0,0,0.05,43,0)" xlink:href="#K"/><use transform="matrix(0.05,0,0,0.05,53,0)" xlink:href="#M"/><use transform="matrix(0.05,0,0,0.05,63,0)" xlink:href="#W"/><use transform="matrix(0.05,0,0,0.05,73,0)" xlink:href="#Z"/><use transform="matrix(0.05,0,0,0.05,85.95,0)" xlink:href="#N"/></g><g id="u"><use transform="matrix(0.05,0,0,0.05,0,0)" xlink:href="#F"/><use transform="matrix(0.05,0,0,0.05,9,0)" xlink:href="#R"/><use transform="matrix(0.05,0,0,0.05,18,0)" xlink:href="#W"/><use transform="matrix(0.05,0,0,0.05,28,0)" xlink:href="#P"/><use transform="matrix(0.05,0,0,0.05,33.95,0)" xlink:href="#H"/></g><path d="M143 0L79-87 56-68V0H24v-261h32v163l83-92h37l-77 82L181 0h-38" id="ac"/><g id="v"><use transform="matrix(0.04938271604938272,0,0,0.04938271604938272,0,0)" xlink:href="#Z"/><use transform="matrix(0.04938271604938272,0,0,0.04938271604938272,12.790123456790125,0)" xlink:href="#W"/><use transform="matrix(0.04938271604938272,0,0,0.04938271604938272,22.66666666666667,0)" xlink:href="#P"/><use transform="matrix(0.04938271604938272,0,0,0.04938271604938272,28.54320987654322,0)" xlink:href="#ac"/><use transform="matrix(0.04938271604938272,0,0,0.04938271604938272,37.4320987654321,0)" xlink:href="#F"/><use transform="matrix(0.04938271604938272,0,0,0.04938271604938272,46.32098765432099,0)" xlink:href="#S"/><use transform="matrix(0.04938271604938272,0,0,0.04938271604938272,56.19753086419754,0)" xlink:href="#W"/><use transform="matrix(0.04938271604938272,0,0,0.04938271604938272,66.07407407407408,0)" xlink:href="#Q"/><use transform="matrix(0.04938271604938272,0,0,0.04938271604938272,75.95061728395062,0)" xlink:href="#K"/><use transform="matrix(0.04938271604938272,0,0,0.04938271604938272,85.82716049382717,0)" xlink:href="#T"/><use transform="matrix(0.04938271604938272,0,0,0.04938271604938272,89.7283950617284,0)" xlink:href="#H"/><use transform="matrix(0.04938271604938272,0,0,0.04938271604938272,99.60493827160495,0)" xlink:href="#V"/><use transform="matrix(0.04938271604938272,0,0,0.04938271604938272,108.49382716049384,0)" xlink:href="#H"/><use transform="matrix(0.04938271604938272,0,0,0.04938271604938272,118.37037037037038,0)" xlink:href="#T"/><use transform="matrix(0.04938271604938272,0,0,0.04938271604938272,122.27160493827162,0)" xlink:href="#K"/><use transform="matrix(0.04938271604938272,0,0,0.04938271604938272,132.14814814814815,0)" xlink:href="#M"/><use transform="matrix(0.04938271604938272,0,0,0.04938271604938272,142.0246913580247,0)" xlink:href="#H"/><use transform="matrix(0.04938271604938272,0,0,0.04938271604938272,151.90123456790127,0)" xlink:href="#G"/><use transform="matrix(0.04938271604938272,0,0,0.04938271604938272,156.83950617283955,0)" xlink:href="#I"/><use transform="matrix(0.04938271604938272,0,0,0.04938271604938272,166.7160493827161,0)" xlink:href="#L"/><use transform="matrix(0.04938271604938272,0,0,0.04938271604938272,170.61728395061735,0)" xlink:href="#T"/><use transform="matrix(0.04938271604938272,0,0,0.04938271604938272,174.5185185185186,0)" xlink:href="#F"/></g><g id="w"><use transform="matrix(0.05,0,0,0.05,0,0)" xlink:href="#P"/><use transform="matrix(0.05,0,0,0.05,5.95,0)" xlink:href="#I"/><use transform="matrix(0.05,0,0,0.05,15.949999999999998,0)" xlink:href="#N"/><use transform="matrix(0.05,0,0,0.05,25.950000000000003,0)" xlink:href="#ac"/></g><g id="x"><use transform="matrix(0.04938271604938272,0,0,0.04938271604938272,0,0)" xlink:href="#F"/><use transform="matrix(0.04938271604938272,0,0,0.04938271604938272,8.88888888888889,0)" xlink:href="#G"/><use transform="matrix(0.04938271604938272,0,0,0.04938271604938272,13.827160493827162,0)" xlink:href="#O"/><use transform="matrix(0.04938271604938272,0,0,0.04938271604938272,23.703703703703706,0)" xlink:href="#N"/><use transform="matrix(0.04938271604938272,0,0,0.04938271604938272,33.580246913580254,0)" xlink:href="#G"/><use transform="matrix(0.04938271604938272,0,0,0.04938271604938272,38.518518518518526,0)" xlink:href="#K"/><use transform="matrix(0.04938271604938272,0,0,0.04938271604938272,48.39506172839507,0)" xlink:href="#T"/><use transform="matrix(0.04938271604938272,0,0,0.04938271604938272,52.2962962962963,0)" xlink:href="#H"/><use transform="matrix(0.04938271604938272,0,0,0.04938271604938272,62.17283950617284,0)" xlink:href="#I"/><use transform="matrix(0.04938271604938272,0,0,0.04938271604938272,72.0493827160494,0)" xlink:href="#M"/><use transform="matrix(0.04938271604938272,0,0,0.04938271604938272,81.92592592592594,0)" xlink:href="#H"/><use transform="matrix(0.04938271604938272,0,0,0.04938271604938272,91.80246913580248,0)" xlink:href="#P"/><use transform="matrix(0.04938271604938272,0,0,0.04938271604938272,97.67901234567903,0)" xlink:href="#X"/><use transform="matrix(0.04938271604938272,0,0,0.04938271604938272,107.55555555555557,0)" xlink:href="#W"/><use transform="matrix(0.04938271604938272,0,0,0.04938271604938272,117.43209876543212,0)" xlink:href="#I"/><use transform="matrix(0.04938271604938272,0,0,0.04938271604938272,127.30864197530865,0)" xlink:href="#P"/><use transform="matrix(0.04938271604938272,0,0,0.04938271604938272,133.1851851851852,0)" xlink:href="#M"/><use transform="matrix(0.04938271604938272,0,0,0.04938271604938272,143.06172839506172,0)" xlink:href="#K"/><use transform="matrix(0.04938271604938272,0,0,0.04938271604938272,152.93827160493828,0)" xlink:href="#H"/><use transform="matrix(0.04938271604938272,0,0,0.04938271604938272,162.81481481481484,0)" xlink:href="#N"/><use transform="matrix(0.04938271604938272,0,0,0.04938271604938272,172.6913580246914,0)" xlink:href="#G"/><use transform="matrix(0.04938271604938272,0,0,0.04938271604938272,177.62962962962968,0)" xlink:href="#P"/><use transform="matrix(0.04938271604938272,0,0,0.04938271604938272,183.5061728395062,0)" xlink:href="#L"/><use transform="matrix(0.04938271604938272,0,0,0.04938271604938272,187.40740740740745,0)" xlink:href="#H"/><use transform="matrix(0.04938271604938272,0,0,0.04938271604938272,197.283950617284,0)" xlink:href="#F"/></g><g id="y"><use transform="matrix(0.05,0,0,0.05,0,0)" xlink:href="#G"/><use transform="matrix(0.05,0,0,0.05,5,0)" xlink:href="#L"/><use transform="matrix(0.05,0,0,0.05,8.95,0)" xlink:href="#J"/><use transform="matrix(0.05,0,0,0.05,23.9,0)" xlink:href="#H"/></g><g id="z"><use transform="matrix(0.04938271604938272,0,0,0.04938271604938272,0,0)" xlink:href="#F"/><use transform="matrix(0.04938271604938272,0,0,0.04938271604938272,8.88888888888889,0)" xlink:href="#Q"/><use transform="matrix(0.04938271604938272,0,0,0.04938271604938272,18.765432098765434,0)" xlink:href="#P"/><use transform="matrix(0.04938271604938272,0,0,0.04938271604938272,24.641975308641978,0)" xlink:href="#L"/><use transform="matrix(0.04938271604938272,0,0,0.04938271604938272,28.543209876543212,0)" xlink:href="#N"/><use transform="matrix(0.04938271604938272,0,0,0.04938271604938272,38.41975308641976,0)" xlink:href="#G"/><use transform="matrix(0.04938271604938272,0,0,0.04938271604938272,43.35802469135803,0)" xlink:href="#K"/><use transform="matrix(0.04938271604938272,0,0,0.04938271604938272,53.23456790123457,0)" xlink:href="#T"/><use transform="matrix(0.04938271604938272,0,0,0.04938271604938272,57.135802469135804,0)" xlink:href="#H"/><use transform="matrix(0.04938271604938272,0,0,0.04938271604938272,67.01234567901236,0)" xlink:href="#I"/><use transform="matrix(0.04938271604938272,0,0,0.04938271604938272,76.8888888888889,0)" xlink:href="#M"/><use transform="matrix(0.04938271604938272,0,0,0.04938271604938272,86.76543209876544,0)" xlink:href="#H"/><use transform="matrix(0.04938271604938272,0,0,0.04938271604938272,96.64197530864199,0)" xlink:href="#P"/><use transform="matrix(0.04938271604938272,0,0,0.04938271604938272,102.51851851851853,0)" xlink:href="#X"/><use transform="matrix(0.04938271604938272,0,0,0.04938271604938272,112.39506172839508,0)" xlink:href="#W"/><use transform="matrix(0.04938271604938272,0,0,0.04938271604938272,122.27160493827162,0)" xlink:href="#I"/><use transform="matrix(0.04938271604938272,0,0,0.04938271604938272,132.14814814814815,0)" xlink:href="#P"/><use transform="matrix(0.04938271604938272,0,0,0.04938271604938272,138.02469135802468,0)" xlink:href="#M"/><use transform="matrix(0.04938271604938272,0,0,0.04938271604938272,147.9012345679012,0)" xlink:href="#K"/><use transform="matrix(0.04938271604938272,0,0,0.04938271604938272,157.77777777777777,0)" xlink:href="#H"/><use transform="matrix(0.04938271604938272,0,0,0.04938271604938272,167.65432098765433,0)" xlink:href="#N"/><use transform="matrix(0.04938271604938272,0,0,0.04938271604938272,177.5308641975309,0)" xlink:href="#G"/><use transform="matrix(0.04938271604938272,0,0,0.04938271604938272,182.46913580246917,0)" xlink:href="#P"/><use transform="matrix(0.04938271604938272,0,0,0.04938271604938272,188.3456790123457,0)" xlink:href="#L"/><use transform="matrix(0.04938271604938272,0,0,0.04938271604938272,192.24691358024694,0)" xlink:href="#H"/><use transform="matrix(0.04938271604938272,0,0,0.04938271604938272,202.1234567901235,0)" xlink:href="#F"/></g><g id="A"><use transform="matrix(0.04938271604938272,0,0,0.04938271604938272,0,0)" xlink:href="#R"/><use transform="matrix(0.04938271604938272,0,0,0.04938271604938272,8.88888888888889,0)" xlink:href="#S"/><use transform="matrix(0.04938271604938272,0,0,0.04938271604938272,18.765432098765434,0)" xlink:href="#I"/><use transform="matrix(0.04938271604938272,0,0,0.04938271604938272,28.641975308641978,0)" xlink:href="#T"/><use transform="matrix(0.04938271604938272,0,0,0.04938271604938272,32.543209876543216,0)" xlink:href="#T"/><use transform="matrix(0.04938271604938272,0,0,0.04938271604938272,36.44444444444445,0)" xlink:href="#H"/><use transform="matrix(0.04938271604938272,0,0,0.04938271604938272,46.320987654320994,0)" xlink:href="#N"/><use transform="matrix(0.04938271604938272,0,0,0.04938271604938272,56.19753086419754,0)" xlink:href="#U"/><use transform="matrix(0.04938271604938272,0,0,0.04938271604938272,66.07407407407408,0)" xlink:href="#H"/><use transform="matrix(0.04938271604938272,0,0,0.04938271604938272,75.95061728395062,0)" xlink:href="#K"/><use transform="matrix(0.04938271604938272,0,0,0.04938271604938272,85.82716049382717,0)" xlink:href="#T"/><use transform="matrix(0.04938271604938272,0,0,0.04938271604938272,89.7283950617284,0)" xlink:href="#H"/><use transform="matrix(0.04938271604938272,0,0,0.04938271604938272,99.60493827160495,0)" xlink:href="#I"/><use transform="matrix(0.04938271604938272,0,0,0.04938271604938272,109.4814814814815,0)" xlink:href="#M"/><use transform="matrix(0.04938271604938272,0,0,0.04938271604938272,119.35802469135804,0)" xlink:href="#H"/><use transform="matrix(0.04938271604938272,0,0,0.04938271604938272,129.23456790123458,0)" xlink:href="#P"/><use transform="matrix(0.04938271604938272,0,0,0.04938271604938272,135.11111111111111,0)" xlink:href="#X"/><use transform="matrix(0.04938271604938272,0,0,0.04938271604938272,144.98765432098764,0)" xlink:href="#W"/><use transform="matrix(0.04938271604938272,0,0,0.04938271604938272,154.8641975308642,0)" xlink:href="#I"/><use transform="matrix(0.04938271604938272,0,0,0.04938271604938272,164.74074074074076,0)" xlink:href="#P"/><use transform="matrix(0.04938271604938272,0,0,0.04938271604938272,170.6172839506173,0)" xlink:href="#M"/><use transform="matrix(0.04938271604938272,0,0,0.04938271604938272,180.49382716049382,0)" xlink:href="#K"/><use transform="matrix(0.04938271604938272,0,0,0.04938271604938272,190.37037037037038,0)" xlink:href="#H"/><use transform="matrix(0.04938271604938272,0,0,0.04938271604938272,200.24691358024694,0)" xlink:href="#N"/><use transform="matrix(0.04938271604938272,0,0,0.04938271604938272,210.12345679012353,0)" xlink:href="#G"/><use transform="matrix(0.04938271604938272,0,0,0.04938271604938272,215.06172839506178,0)" xlink:href="#P"/><use transform="matrix(0.04938271604938272,0,0,0.04938271604938272,220.93827160493828,0)" xlink:href="#L"/><use transform="matrix(0.04938271604938272,0,0,0.04938271604938272,224.83950617283958,0)" xlink:href="#H"/><use transform="matrix(0.04938271604938272,0,0,0.04938271604938272,234.7160493827161,0)" xlink:href="#F"/></g><g id="B"><use transform="matrix(0.05,0,0,0.05,0,0)" xlink:href="#W"/><use transform="matrix(0.05,0,0,0.05,10,0)" xlink:href="#N"/><use transform="matrix(0.05,0,0,0.05,20,0)" xlink:href="#H"/><use transform="matrix(0.05,0,0,0.05,30,0)" xlink:href="#P"/><use transform="matrix(0.05,0,0,0.05,35.95,0)" xlink:href="#W"/><use transform="matrix(0.05,0,0,0.05,45.95,0)" xlink:href="#Z"/><use transform="matrix(0.05,0,0,0.05,58.900000000000006,0)" xlink:href="#K"/><use transform="matrix(0.05,0,0,0.05,68.9,0)" xlink:href="#L"/><use transform="matrix(0.05,0,0,0.05,72.85000000000001,0)" xlink:href="#M"/></g><g id="C"><use transform="matrix(0.05,0,0,0.05,0,0)" xlink:href="#T"/><use transform="matrix(0.05,0,0,0.05,3.95,0)" xlink:href="#I"/><use transform="matrix(0.05,0,0,0.05,13.949999999999998,0)" xlink:href="#F"/><use transform="matrix(0.05,0,0,0.05,22.95,0)" xlink:href="#G"/><use transform="matrix(0.05,0,0,0.05,27.950000000000003,0)" xlink:href="#K"/><use transform="matrix(0.05,0,0,0.05,37.95,0)" xlink:href="#O"/><use transform="matrix(0.05,0,0,0.05,47.95,0)" xlink:href="#Q"/><use transform="matrix(0.05,0,0,0.05,57.95,0)" xlink:href="#M"/><use transform="matrix(0.05,0,0,0.05,67.95,0)" xlink:href="#I"/><use transform="matrix(0.05,0,0,0.05,77.95,0)" xlink:href="#G"/><use transform="matrix(0.05,0,0,0.05,82.95,0)" xlink:href="#H"/><use transform="matrix(0.05,0,0,0.05,92.95,0)" xlink:href="#M"/></g><g id="D"><use transform="matrix(0.04938271604938272,0,0,0.04938271604938272,0,0)" xlink:href="#J"/><use transform="matrix(0.04938271604938272,0,0,0.04938271604938272,14.765432098765434,0)" xlink:href="#H"/><use transform="matrix(0.04938271604938272,0,0,0.04938271604938272,24.641975308641978,0)" xlink:href="#G"/><use transform="matrix(0.04938271604938272,0,0,0.04938271604938272,29.58024691358025,0)" xlink:href="#I"/><use transform="matrix(0.04938271604938272,0,0,0.04938271604938272,39.4567901234568,0)" xlink:href="#M"/><use transform="matrix(0.04938271604938272,0,0,0.04938271604938272,49.33333333333334,0)" xlink:href="#I"/><use transform="matrix(0.04938271604938272,0,0,0.04938271604938272,59.209876543209894,0)" xlink:href="#G"/><use transform="matrix(0.04938271604938272,0,0,0.04938271604938272,64.14814814814815,0)" xlink:href="#I"/></g></defs></g></svg>